<?xml version="1.0" encoding="UTF-8" standalone="no"?>
<!-- Created with Inkscape (http://www.inkscape.org/) -->

<svg
   xmlns:dc="http://purl.org/dc/elements/1.1/"
   xmlns:cc="http://creativecommons.org/ns#"
   xmlns:rdf="http://www.w3.org/1999/02/22-rdf-syntax-ns#"
   xmlns:svg="http://www.w3.org/2000/svg"
   xmlns="http://www.w3.org/2000/svg"
   xmlns:sodipodi="http://sodipodi.sourceforge.net/DTD/sodipodi-0.dtd"
   xmlns:inkscape="http://www.inkscape.org/namespaces/inkscape"
   version="1.1"
   id="svg20140"
   xml:space="preserve"
   width="1066.6667"
   height="1066.6667"
   viewBox="0 0 1066.6667 1066.6667"
   sodipodi:docname="warning-road-closed-pdv.svg"
   inkscape:version="0.92.4 (5da689c313, 2019-01-14)"><metadata
     id="metadata20146"><rdf:RDF><cc:Work
         rdf:about=""><dc:format>image/svg+xml</dc:format><dc:type
           rdf:resource="http://purl.org/dc/dcmitype/StillImage" /><dc:title></dc:title></cc:Work></rdf:RDF></metadata><defs
     id="defs20144"><clipPath
       clipPathUnits="userSpaceOnUse"
       id="clipPath20156"><path
         d="M 0,800 H 800 V 0 H 0 Z"
         id="path20154"
         inkscape:connector-curvature="0" /></clipPath><radialGradient
       fx="0"
       fy="0"
       cx="0"
       cy="0"
       r="1"
       gradientUnits="userSpaceOnUse"
       gradientTransform="matrix(557.53662,0,0,-557.53662,399.1377,400)"
       spreadMethod="pad"
       id="radialGradient20176"><stop
         style="stop-opacity:1;stop-color:#ffffff"
         offset="0"
         id="stop20170" /><stop
         style="stop-opacity:1;stop-color:#ffffff"
         offset="0.66129"
         id="stop20172" /><stop
         style="stop-opacity:1;stop-color:#bcbec0"
         offset="1"
         id="stop20174" /></radialGradient><clipPath
       clipPathUnits="userSpaceOnUse"
       id="clipPath20186"><path
         d="M 216.108,460 H 800 V 0 H 216.108 Z"
         id="path20184"
         inkscape:connector-curvature="0" /></clipPath><linearGradient
       x1="0"
       y1="0"
       x2="1"
       y2="0"
       gradientUnits="userSpaceOnUse"
       gradientTransform="matrix(30.351562,0,0,-30.351562,382.03418,344)"
       spreadMethod="pad"
       id="linearGradient20224"><stop
         style="stop-opacity:1;stop-color:#e4e0de"
         offset="0"
         id="stop20206" /><stop
         style="stop-opacity:1;stop-color:#e4e0de"
         offset="0.0292797"
         id="stop20208" /><stop
         style="stop-opacity:1;stop-color:#adb2b5"
         offset="0.174157"
         id="stop20210" /><stop
         style="stop-opacity:1;stop-color:#e1e3e5"
         offset="0.331461"
         id="stop20212" /><stop
         style="stop-opacity:1;stop-color:#f1f1f1"
         offset="0.494382"
         id="stop20214" /><stop
         style="stop-opacity:1;stop-color:#f1f1f1"
         offset="0.51059159"
         id="stop20216" /><stop
         style="stop-opacity:1;stop-color:#999fa4"
         offset="0.91573"
         id="stop20218" /><stop
         style="stop-opacity:1;stop-color:#999fa4"
         offset="0.9830691"
         id="stop20220" /><stop
         style="stop-opacity:1;stop-color:#999fa4"
         offset="1"
         id="stop20222" /></linearGradient><linearGradient
       x1="0"
       y1="0"
       x2="1"
       y2="0"
       gradientUnits="userSpaceOnUse"
       gradientTransform="matrix(479.45706,-479.45706,-479.45706,-479.45706,158.94434,716.03857)"
       spreadMethod="pad"
       id="linearGradient20244"><stop
         style="stop-opacity:1;stop-color:#fbd915"
         offset="0"
         id="stop20240" /><stop
         style="stop-opacity:1;stop-color:#fbb01d"
         offset="1"
         id="stop20242" /></linearGradient></defs><sodipodi:namedview
     pagecolor="#ffffff"
     bordercolor="#666666"
     borderopacity="1"
     objecttolerance="10"
     gridtolerance="10"
     guidetolerance="10"
     inkscape:pageopacity="0"
     inkscape:pageshadow="2"
     inkscape:window-width="1920"
     inkscape:window-height="1018"
     id="namedview20142"
     showgrid="false"
     inkscape:zoom="0.75103998"
     inkscape:cx="533.33337"
     inkscape:cy="533.33337"
     inkscape:window-x="-8"
     inkscape:window-y="-8"
     inkscape:window-maximized="1"
     inkscape:current-layer="g20148" /><g
     id="g20148"
     inkscape:groupmode="layer"
     inkscape:label="warning-road-closed-pdv"
     transform="matrix(1.3333333,0,0,-1.3333333,0,1066.6667)"><g
       id="g20150"><g
         id="g20152"
         clip-path="url(#clipPath20156)"><g
           id="g20158"><g
             id="g20160"><g
               id="g20166"><g
                 id="g20168"><path
                   d="M 800,0 H 0 v 800 h 800 z"
                   style="fill:url(#radialGradient20176);stroke:none"
                   id="path20178"
                   inkscape:connector-curvature="0" /></g></g></g></g><g
           id="g20180"><g
             id="g20182" /><g
             id="g20192"><g
               clip-path="url(#clipPath20186)"
               id="g20190"><path
                 d="m 671.513,141.424 c 28.67,0.152 67.621,12.209 81.134,40.14 15.948,34.253 31.77,68.564 47.353,102.981 V 460 H 406.293 c -27.159,-0.057 -66.036,-10.044 -78.623,-37.264 -35.621,-80.92 -71.798,-161.59 -108.43,-242.056 -14.191,-29.347 23.259,-39.044 43.926,-40.369 62.498,0.169 124.995,0.34 187.493,0.511 C 428.883,93.835 406.973,46.911 385.034,0 h 30.352 c 21.945,46.947 43.889,93.896 65.702,140.905 63.475,0.173 126.95,0.346 190.425,0.519"
                 style="fill:#e6e7e8;fill-opacity:1;fill-rule:nonzero;stroke:none"
                 id="path20188"
                 inkscape:connector-curvature="0" /></g></g></g><g
           id="g20194"><g
             id="g20196"><g
               id="g20202"><g
                 id="g20204"><path
                   d="M 382.034,688 V 360.254 0 h 30.352 V 360.254 688 Z"
                   style="fill:url(#linearGradient20224);stroke:none"
                   id="path20226"
                   inkscape:connector-curvature="0" /></g></g></g></g><g
           id="g20228"><g
             id="g20230"><g
               id="g20236"><g
                 id="g20238"><path
                   d="m 664.621,288.604 c 0,-34.404 -27.89,-62.293 -62.294,-62.293 h -407.31 c -34.403,0 -62.293,27.889 -62.293,62.293 v 375.413 c 0,34.404 27.89,62.294 62.293,62.294 h 407.31 c 34.404,0 62.294,-27.89 62.294,-62.294 z"
                   style="fill:url(#linearGradient20244);stroke:none"
                   id="path20246"
                   inkscape:connector-curvature="0" /></g></g></g></g><path
           d="m 195.017,241.311 c -26.078,0 -47.293,21.215 -47.293,47.293 v 375.413 c 0,26.078 21.215,47.294 47.293,47.294 h 407.31 c 26.078,0 47.294,-21.216 47.294,-47.294 V 288.604 c 0,-26.078 -21.216,-47.293 -47.294,-47.293 z"
           style="fill:none;stroke:#231f20;stroke-width:6;stroke-linecap:butt;stroke-linejoin:miter;stroke-miterlimit:10;stroke-dasharray:none;stroke-opacity:1"
           id="path20248"
           inkscape:connector-curvature="0" /><path
           d="m 581.782,659.205 c -0.276,-1.22 -0.816,-3.073 -1.621,-5.562 -1.156,-3.519 -1.967,-6.328 -2.432,-8.427 -0.465,-2.099 -0.748,-4.153 -0.848,-6.164 -0.051,-1.031 -0.245,-1.76 -0.584,-2.187 -0.34,-0.428 -0.887,-0.641 -1.641,-0.641 -0.653,0 -1.137,0.182 -1.451,0.547 -0.314,0.364 -0.497,0.961 -0.547,1.791 -0.151,1.683 -0.277,2.871 -0.377,3.563 -0.1,0.69 -0.34,1.765 -0.717,3.223 -0.602,2.362 -1.382,4.902 -2.337,7.616 -1.131,3.192 -1.841,5.379 -2.13,6.561 -0.289,1.181 -0.434,2.475 -0.434,3.884 0,2.262 0.691,4.247 2.074,5.957 1.433,1.81 3.38,2.715 5.844,2.715 2.212,0 4.034,-0.881 5.467,-2.64 1.432,-1.759 2.149,-3.997 2.149,-6.711 0,-1.131 -0.138,-2.307 -0.415,-3.525 m -2.224,-38.515 c -1.433,-1.433 -3.155,-2.149 -5.165,-2.149 -2.037,0 -3.771,0.716 -5.204,2.149 -1.432,1.433 -2.149,3.167 -2.149,5.203 0,2.011 0.717,3.732 2.149,5.166 1.433,1.432 3.167,2.149 5.204,2.149 2.01,0 3.732,-0.717 5.165,-2.149 1.433,-1.434 2.149,-3.155 2.149,-5.166 0,-2.036 -0.716,-3.77 -2.149,-5.203 m -20.87,21.661 c -0.188,-0.315 -0.534,-0.648 -1.037,-0.999 -0.503,-0.352 -0.816,-0.679 -0.942,-0.981 -0.126,-0.301 -0.188,-0.854 -0.188,-1.659 v -12.857 c -1.006,-1.005 -2.344,-2.03 -4.016,-3.073 -1.672,-1.043 -3.249,-1.866 -4.732,-2.469 -1.357,-0.528 -2.859,-0.955 -4.505,-1.282 -1.647,-0.326 -3.098,-0.49 -4.355,-0.49 v 4.26 c 0.729,0.176 1.275,0.389 1.64,0.641 0.364,0.251 0.673,0.603 0.924,1.056 0.427,0.779 0.641,1.772 0.641,2.979 v 11.009 c 0,0.98 -0.188,1.684 -0.566,2.112 -0.176,0.251 -0.352,0.408 -0.528,0.471 -0.175,0.062 -0.753,0.207 -1.734,0.433 -1.207,0.302 -1.81,1.005 -1.81,2.112 0,0.653 0.283,1.156 0.848,1.508 0.567,0.352 1.401,0.528 2.508,0.528 h 1.244 13.8 c 1.131,0 1.929,-0.157 2.394,-0.471 0.465,-0.315 0.698,-0.862 0.698,-1.64 0,-0.478 -0.095,-0.874 -0.284,-1.188 m -22.301,25.506 c -2.212,-0.527 -3.319,-2.287 -3.319,-5.278 v -35.102 c 0,-1.358 0.189,-2.401 0.567,-3.13 0.326,-0.603 1.017,-1.119 2.073,-1.546 v -4.26 c -0.805,0 -1.54,0.063 -2.206,0.188 -0.666,0.126 -1.552,0.377 -2.658,0.754 -2.639,0.905 -5.028,2.287 -7.163,4.148 -2.137,1.86 -3.897,4.084 -5.28,6.673 -2.136,4.047 -3.204,8.836 -3.204,14.365 0,5.354 0.955,10.105 2.866,14.253 1.91,4.147 4.65,7.402 8.219,9.765 2.061,1.382 4.273,2.376 6.636,2.979 0.98,0.251 2.136,0.377 3.469,0.377 z m -24.64,-0.056 c -0.239,-0.264 -0.81,-0.622 -1.716,-1.074 -1.332,-0.679 -2.338,-1.723 -3.016,-3.13 -0.478,-1.031 -0.716,-2.426 -0.716,-4.185 v -17.193 l -3.997,6.749 v 10.444 c 0,2.111 -0.308,3.726 -0.924,4.845 -0.616,1.118 -1.703,2.079 -3.261,2.884 -0.528,0.251 -0.892,0.522 -1.094,0.811 -0.201,0.289 -0.301,0.66 -0.301,1.112 0,0.679 0.219,1.175 0.66,1.489 0.439,0.315 1.149,0.472 2.13,0.472 h 9.426 c 1.282,0 2.124,-0.202 2.526,-0.604 0.428,-0.402 0.641,-0.879 0.641,-1.432 0,-0.528 -0.12,-0.924 -0.358,-1.188 m -5.448,-48.242 h -10.293 l -25.602,44.113 c -0.552,0.955 -1.006,1.622 -1.357,1.999 -0.353,0.377 -0.805,0.653 -1.358,0.829 l -1.432,0.528 c -0.377,0.126 -0.679,0.352 -0.905,0.679 -0.226,0.326 -0.339,0.691 -0.339,1.093 0,0.428 0.113,0.823 0.339,1.188 0.226,0.364 0.528,0.622 0.905,0.773 0.427,0.176 1.584,0.264 3.469,0.264 h 16.514 l 20.059,-34.839 z m -26.771,0.49 c -0.402,-0.327 -1.231,-0.49 -2.488,-0.49 h -8.709 c -2.288,0 -3.432,0.653 -3.432,1.96 0,0.453 0.12,0.811 0.359,1.075 0.238,0.264 0.76,0.622 1.564,1.074 2.413,1.332 3.62,3.758 3.62,7.277 v 26.846 l 3.996,-6.636 v -20.21 c 0,-1.759 0.296,-3.205 0.887,-4.336 0.59,-1.131 1.527,-2.061 2.809,-2.79 l 1.131,-0.641 c 0.653,-0.377 0.98,-0.943 0.98,-1.697 0,-0.578 -0.239,-1.055 -0.717,-1.432 m -24.205,4.449 c 0.151,-0.227 0.295,-0.372 0.434,-0.434 0.138,-0.063 0.622,-0.232 1.451,-0.509 1.005,-0.327 1.508,-1.005 1.508,-2.036 0,-0.628 -0.245,-1.112 -0.736,-1.452 -0.489,-0.339 -1.187,-0.508 -2.091,-0.508 h -0.981 -16.816 -0.981 c -0.904,0 -1.602,0.169 -2.091,0.508 -0.491,0.34 -0.736,0.824 -0.736,1.452 0,1.031 0.502,1.709 1.508,2.036 0.829,0.277 1.313,0.446 1.452,0.509 0.138,0.062 0.282,0.207 0.434,0.434 0.301,0.401 0.452,1.043 0.452,1.923 v 37.742 c 0,0.879 -0.151,1.52 -0.452,1.922 -0.152,0.227 -0.296,0.371 -0.434,0.434 -0.139,0.063 -0.623,0.232 -1.452,0.509 -1.006,0.326 -1.508,1.005 -1.508,2.036 0,0.628 0.245,1.112 0.736,1.452 0.489,0.339 1.187,0.509 2.091,0.509 h 0.981 16.816 0.981 c 0.904,0 1.602,-0.17 2.091,-0.509 0.491,-0.34 0.736,-0.824 0.736,-1.452 0,-1.031 -0.503,-1.71 -1.508,-2.036 -0.829,-0.277 -1.313,-0.446 -1.451,-0.509 -0.139,-0.063 -0.283,-0.207 -0.434,-0.434 -0.302,-0.402 -0.453,-1.043 -0.453,-1.922 v -37.742 c 0,-0.88 0.151,-1.522 0.453,-1.923 m -26.035,43.303 c -0.239,-0.264 -0.81,-0.622 -1.715,-1.074 -1.333,-0.679 -2.338,-1.723 -3.016,-3.13 -0.478,-1.031 -0.717,-2.426 -0.717,-4.185 v -17.193 l -3.996,6.749 v 10.444 c 0,2.111 -0.309,3.726 -0.924,4.845 -0.616,1.118 -1.703,2.079 -3.262,2.884 -0.527,0.251 -0.892,0.522 -1.093,0.811 -0.202,0.289 -0.301,0.66 -0.301,1.112 0,0.679 0.219,1.175 0.659,1.489 0.439,0.315 1.15,0.472 2.131,0.472 h 9.425 c 1.283,0 2.125,-0.202 2.527,-0.604 0.427,-0.402 0.64,-0.879 0.64,-1.432 0,-0.528 -0.119,-0.924 -0.358,-1.188 m -5.448,-48.242 h -10.293 l -25.601,44.113 c -0.553,0.955 -1.006,1.622 -1.358,1.999 -0.352,0.377 -0.804,0.653 -1.357,0.829 l -1.432,0.528 c -0.378,0.126 -0.679,0.352 -0.906,0.679 -0.226,0.326 -0.339,0.691 -0.339,1.093 0,0.428 0.113,0.823 0.339,1.188 0.227,0.364 0.528,0.622 0.906,0.773 0.426,0.176 1.583,0.264 3.468,0.264 h 16.514 l 20.059,-34.839 z m -26.77,0.49 c -0.403,-0.327 -1.232,-0.49 -2.488,-0.49 h -8.71 c -2.288,0 -3.431,0.653 -3.431,1.96 0,0.453 0.12,0.811 0.358,1.075 0.239,0.264 0.76,0.622 1.565,1.074 2.413,1.332 3.619,3.758 3.619,7.277 v 26.846 l 3.997,-6.636 v -20.21 c 0,-1.759 0.295,-3.205 0.887,-4.336 0.59,-1.131 1.526,-2.061 2.808,-2.79 l 1.132,-0.641 c 0.652,-0.377 0.98,-0.943 0.98,-1.697 0,-0.578 -0.24,-1.055 -0.717,-1.432 m -19.852,3.826 c -0.741,-1.118 -1.664,-2.117 -2.771,-2.997 -1.03,-0.829 -2.149,-1.426 -3.355,-1.791 -1.206,-0.364 -2.627,-0.546 -4.261,-0.546 -3.318,0 -5.907,0.949 -7.767,2.846 -1.86,1.898 -2.79,4.544 -2.79,7.937 v 6.334 c 0,1.408 -0.013,2.225 -0.037,2.451 -0.127,1.005 -0.479,1.872 -1.057,2.601 -0.729,0.88 -1.772,1.395 -3.129,1.546 v 4.035 c 1.357,0.201 2.324,0.552 2.903,1.056 0.503,0.452 0.849,0.967 1.038,1.546 0.188,0.577 0.282,1.432 0.282,2.563 v 9.992 c 0,1.583 -0.308,2.765 -0.924,3.544 -0.616,0.779 -1.728,1.395 -3.337,1.847 v 4.186 h 0.981 c 2.79,0 5.165,-0.101 7.126,-0.302 2.915,-0.277 5.517,-1.232 7.805,-2.866 3.292,-2.337 4.939,-5.668 4.939,-9.991 0,-3.544 -1.106,-6.448 -3.318,-8.71 -0.931,-0.955 -2.017,-1.734 -3.262,-2.337 -1.244,-0.604 -3.136,-1.282 -5.674,-2.036 2.312,-0.353 4.091,-0.742 5.335,-1.169 1.244,-0.428 2.369,-1.006 3.374,-1.735 1.056,-0.779 1.868,-1.709 2.432,-2.79 0.566,-1.081 0.849,-2.224 0.849,-3.431 v -7.804 c 0,-0.805 0.264,-1.207 0.792,-1.207 0.2,0 0.371,0.057 0.508,0.169 0.139,0.114 0.333,0.333 0.585,0.661 0.628,0.854 1.269,1.281 1.923,1.281 0.427,0 0.855,-0.226 1.282,-0.678 0.427,-0.453 0.641,-0.905 0.641,-1.358 0,-0.779 -0.372,-1.728 -1.113,-2.847 m -24.489,-3.864 c -0.477,-0.302 -1.269,-0.452 -2.375,-0.452 h -1.282 -16.815 -0.981 c -0.905,0 -1.602,0.169 -2.092,0.508 -0.491,0.34 -0.736,0.824 -0.736,1.452 0,1.031 0.503,1.709 1.509,2.036 0.829,0.277 1.313,0.446 1.451,0.509 0.138,0.062 0.283,0.207 0.434,0.434 0.301,0.401 0.452,1.043 0.452,1.923 v 37.742 c 0,0.879 -0.151,1.52 -0.452,1.922 -0.151,0.227 -0.296,0.371 -0.434,0.434 -0.138,0.063 -0.622,0.232 -1.451,0.509 -1.006,0.326 -1.509,1.005 -1.509,2.036 0,0.628 0.245,1.112 0.736,1.452 0.49,0.339 1.187,0.509 2.092,0.509 h 0.981 16.778 v -44.303 c 0,-0.98 0.189,-1.684 0.565,-2.111 0.201,-0.252 0.39,-0.409 0.566,-0.471 0.176,-0.063 0.754,-0.221 1.734,-0.472 1.206,-0.276 1.81,-0.968 1.81,-2.073 0,-0.654 -0.327,-1.182 -0.981,-1.584 m -30.312,-0.452 h -18.815 c -0.755,0 -1.358,0.182 -1.81,0.546 -0.452,0.364 -0.679,0.849 -0.679,1.452 0,0.503 0.1,0.88 0.302,1.131 0.2,0.251 0.653,0.565 1.357,0.943 0.503,0.251 0.854,0.528 1.056,0.829 0.201,0.302 0.301,0.679 0.301,1.131 0,0.428 -0.037,0.805 -0.112,1.131 l -1.207,5.467 h -10.52 l 1.018,4.487 h 8.446 l -6.937,30.654 0.942,3.695 h 15.195 l 10.482,-44.303 c 0.201,-0.779 0.427,-1.47 0.678,-2.074 0.227,-0.477 0.729,-0.867 1.508,-1.168 0.654,-0.277 1.107,-0.553 1.357,-0.83 0.251,-0.276 0.378,-0.653 0.378,-1.131 0,-1.307 -0.981,-1.96 -2.94,-1.96 m -32.275,0 h -9.578 c -0.93,0 -1.665,0.194 -2.206,0.584 -0.54,0.389 -0.81,0.924 -0.81,1.603 0,0.728 0.553,1.332 1.66,1.809 1.029,0.453 1.79,0.861 2.28,1.226 0.491,0.364 0.962,0.86 1.414,1.489 0.703,1.03 1.282,2.4 1.735,4.11 l 8.521,31.068 1.922,-7.805 -6.673,-24.357 c -0.202,-0.704 -0.302,-1.357 -0.302,-1.96 0,-1.584 0.741,-2.715 2.225,-3.394 l 1.32,-0.603 c 0.829,-0.377 1.244,-1.006 1.244,-1.885 0,-1.257 -0.918,-1.885 -2.752,-1.885 m -13.971,48.581 c -0.213,-0.264 -0.571,-0.509 -1.074,-0.735 -1.131,-0.503 -1.96,-1.031 -2.489,-1.583 -1.156,-1.157 -2.023,-2.828 -2.601,-5.015 l -4.675,-18.06 -1.961,7.653 2.753,11.161 c 0.226,0.879 0.339,1.558 0.339,2.036 0,0.754 -0.208,1.401 -0.622,1.942 -0.415,0.54 -1.1,1.049 -2.055,1.527 -0.628,0.326 -1.062,0.641 -1.301,0.942 -0.239,0.302 -0.358,0.691 -0.358,1.169 0,0.654 0.207,1.125 0.623,1.414 0.414,0.289 1.073,0.434 1.979,0.434 h 8.973 c 1.031,0 1.753,-0.145 2.169,-0.434 0.414,-0.289 0.621,-0.773 0.621,-1.451 0,-0.403 -0.107,-0.736 -0.321,-1 m -16.57,-48.581 h -8.22 l -8.785,33.142 4.487,18.324 h 7.767 l 9.049,-34.311 z m -20.663,0 h -8.143 l -12.141,44.302 c -0.277,1.005 -0.534,1.684 -0.773,2.036 -0.239,0.352 -0.648,0.641 -1.225,0.867 -1.006,0.402 -1.509,1.068 -1.509,1.999 0,0.728 0.315,1.287 0.943,1.677 0.628,0.39 1.509,0.585 2.639,0.585 h 17.646 c 1.105,0 1.86,-0.151 2.263,-0.453 0.528,-0.377 0.791,-0.892 0.791,-1.546 0,-0.779 -0.44,-1.432 -1.32,-1.96 -0.729,-0.428 -1.2,-0.786 -1.413,-1.075 -0.215,-0.289 -0.321,-0.722 -0.321,-1.301 0,-0.276 0.038,-0.553 0.113,-0.829 l 7.013,-26.053 z m 300.541,52.446 c 4.096,-0.377 7.465,-1.131 10.104,-2.262 0.779,-0.352 1.382,-0.528 1.81,-0.528 0.402,0 0.71,0.094 0.923,0.283 0.214,0.188 0.648,0.722 1.301,1.602 0.453,0.628 1.019,0.943 1.697,0.943 0.704,0 1.201,-0.195 1.49,-0.585 0.288,-0.39 0.433,-1.037 0.433,-1.941 V 654.85 c 0,-1.911 -0.704,-2.866 -2.111,-2.866 -0.704,0 -1.226,0.189 -1.565,0.566 -0.339,0.377 -0.66,1.118 -0.961,2.224 -0.377,1.408 -1.056,3.048 -2.037,4.921 -0.98,1.872 -1.922,3.349 -2.828,4.43 -1.03,1.256 -2.186,2.18 -3.468,2.771 -1.282,0.59 -2.878,0.936 -4.788,1.037 z m 62.848,24.306 h -407.31 c -17.806,0 -32.293,-14.487 -32.293,-32.294 v -69.706 h 471.897 v 69.706 c 0,17.807 -14.487,32.294 -32.294,32.294"
           style="fill:#000000;fill-opacity:1;fill-rule:nonzero;stroke:none"
           id="path20250"
           inkscape:connector-curvature="0" /><path
           d="m 581.782,321.205 c -0.276,-1.22 -0.816,-3.073 -1.621,-5.561 -1.156,-3.521 -1.967,-6.33 -2.432,-8.427 -0.465,-2.1 -0.748,-4.154 -0.848,-6.165 -0.051,-1.031 -0.245,-1.76 -0.584,-2.188 -0.34,-0.427 -0.887,-0.64 -1.641,-0.64 -0.653,0 -1.137,0.182 -1.451,0.547 -0.314,0.364 -0.497,0.96 -0.547,1.791 -0.151,1.683 -0.277,2.872 -0.377,3.563 -0.1,0.69 -0.34,1.765 -0.717,3.223 -0.602,2.362 -1.382,4.902 -2.337,7.617 -1.131,3.191 -1.841,5.379 -2.13,6.56 -0.289,1.181 -0.434,2.476 -0.434,3.884 0,2.262 0.691,4.247 2.074,5.956 1.433,1.811 3.38,2.716 5.844,2.716 2.212,0 4.034,-0.881 5.467,-2.64 1.432,-1.759 2.149,-3.997 2.149,-6.711 0,-1.131 -0.138,-2.307 -0.415,-3.525 m -2.224,-38.516 c -1.433,-1.432 -3.155,-2.148 -5.165,-2.148 -2.037,0 -3.771,0.716 -5.204,2.148 -1.432,1.434 -2.149,3.168 -2.149,5.205 0,2.01 0.717,3.732 2.149,5.165 1.433,1.432 3.167,2.148 5.204,2.148 2.01,0 3.732,-0.716 5.165,-2.148 1.433,-1.433 2.149,-3.155 2.149,-5.165 0,-2.037 -0.716,-3.771 -2.149,-5.205 m -20.87,21.662 c -0.188,-0.315 -0.534,-0.648 -1.037,-0.999 -0.503,-0.352 -0.816,-0.679 -0.942,-0.981 -0.126,-0.301 -0.188,-0.854 -0.188,-1.658 v -12.858 c -1.006,-1.005 -2.344,-2.03 -4.016,-3.073 -1.672,-1.043 -3.249,-1.866 -4.732,-2.469 -1.357,-0.528 -2.859,-0.956 -4.505,-1.282 -1.647,-0.326 -3.098,-0.49 -4.355,-0.49 v 4.261 c 0.729,0.175 1.275,0.388 1.64,0.639 0.364,0.252 0.673,0.604 0.924,1.057 0.427,0.779 0.641,1.772 0.641,2.979 v 11.008 c 0,0.982 -0.188,1.685 -0.566,2.113 -0.176,0.251 -0.352,0.408 -0.528,0.47 -0.175,0.063 -0.753,0.208 -1.734,0.434 -1.207,0.303 -1.81,1.006 -1.81,2.112 0,0.654 0.283,1.156 0.848,1.508 0.567,0.352 1.401,0.528 2.508,0.528 h 1.244 13.8 c 1.131,0 1.929,-0.157 2.394,-0.471 0.465,-0.315 0.698,-0.862 0.698,-1.64 0,-0.478 -0.095,-0.874 -0.284,-1.188 m -22.301,25.506 c -2.212,-0.527 -3.319,-2.287 -3.319,-5.278 v -35.102 c 0,-1.358 0.189,-2.401 0.567,-3.129 0.326,-0.604 1.017,-1.12 2.073,-1.546 v -4.261 c -0.805,0 -1.54,0.063 -2.206,0.188 -0.666,0.126 -1.552,0.376 -2.658,0.754 -2.639,0.906 -5.028,2.287 -7.163,4.148 -2.137,1.859 -3.897,4.084 -5.28,6.674 -2.136,4.047 -3.204,8.835 -3.204,14.364 0,5.354 0.955,10.105 2.866,14.253 1.91,4.147 4.65,7.402 8.219,9.765 2.061,1.382 4.273,2.376 6.636,2.978 0.98,0.251 2.136,0.378 3.469,0.378 z m -24.64,-0.055 c -0.239,-0.265 -0.81,-0.623 -1.716,-1.075 -1.332,-0.679 -2.338,-1.722 -3.016,-3.129 -0.478,-1.032 -0.716,-2.427 -0.716,-4.186 v -17.193 l -3.997,6.749 v 10.444 c 0,2.111 -0.308,3.727 -0.924,4.845 -0.616,1.118 -1.703,2.079 -3.261,2.884 -0.528,0.252 -0.892,0.521 -1.094,0.811 -0.201,0.288 -0.301,0.659 -0.301,1.112 0,0.679 0.219,1.175 0.66,1.489 0.439,0.315 1.149,0.472 2.13,0.472 h 9.426 c 1.282,0 2.124,-0.202 2.526,-0.603 0.428,-0.403 0.641,-0.881 0.641,-1.433 0,-0.528 -0.12,-0.925 -0.358,-1.187 m -5.448,-48.243 h -10.293 l -25.602,44.114 c -0.552,0.954 -1.006,1.621 -1.357,1.998 -0.353,0.377 -0.805,0.653 -1.358,0.829 l -1.432,0.528 c -0.377,0.126 -0.679,0.352 -0.905,0.678 -0.226,0.327 -0.339,0.691 -0.339,1.095 0,0.427 0.113,0.822 0.339,1.187 0.226,0.365 0.528,0.622 0.905,0.773 0.427,0.176 1.584,0.264 3.469,0.264 h 16.514 l 20.059,-34.839 z m -26.771,0.49 c -0.402,-0.327 -1.231,-0.49 -2.488,-0.49 h -8.709 c -2.288,0 -3.432,0.653 -3.432,1.96 0,0.453 0.12,0.811 0.359,1.075 0.238,0.263 0.76,0.622 1.564,1.075 2.413,1.331 3.62,3.757 3.62,7.276 v 26.846 l 3.996,-6.636 v -20.21 c 0,-1.759 0.296,-3.205 0.887,-4.336 0.59,-1.131 1.527,-2.061 2.809,-2.79 l 1.131,-0.641 c 0.653,-0.376 0.98,-0.943 0.98,-1.697 0,-0.579 -0.239,-1.055 -0.717,-1.432 m -24.205,4.449 c 0.151,-0.227 0.295,-0.371 0.434,-0.434 0.138,-0.063 0.622,-0.232 1.451,-0.508 1.005,-0.328 1.508,-1.006 1.508,-2.037 0,-0.628 -0.245,-1.113 -0.736,-1.452 -0.489,-0.339 -1.187,-0.508 -2.091,-0.508 h -0.981 -16.816 -0.981 c -0.904,0 -1.602,0.169 -2.091,0.508 -0.491,0.339 -0.736,0.824 -0.736,1.452 0,1.031 0.502,1.709 1.508,2.037 0.829,0.276 1.313,0.445 1.452,0.508 0.138,0.063 0.282,0.207 0.434,0.434 0.301,0.401 0.452,1.043 0.452,1.923 v 37.741 c 0,0.88 -0.151,1.522 -0.452,1.923 -0.152,0.227 -0.296,0.371 -0.434,0.434 -0.139,0.062 -0.623,0.232 -1.452,0.509 -1.006,0.326 -1.508,1.005 -1.508,2.036 0,0.628 0.245,1.113 0.736,1.452 0.489,0.339 1.187,0.509 2.091,0.509 h 0.981 16.816 0.981 c 0.904,0 1.602,-0.17 2.091,-0.509 0.491,-0.339 0.736,-0.824 0.736,-1.452 0,-1.031 -0.503,-1.71 -1.508,-2.036 -0.829,-0.277 -1.313,-0.447 -1.451,-0.509 -0.139,-0.063 -0.283,-0.207 -0.434,-0.434 -0.302,-0.401 -0.453,-1.043 -0.453,-1.923 v -37.741 c 0,-0.88 0.151,-1.522 0.453,-1.923 m -26.035,43.304 c -0.239,-0.265 -0.81,-0.623 -1.715,-1.075 -1.333,-0.679 -2.338,-1.722 -3.016,-3.129 -0.478,-1.032 -0.717,-2.427 -0.717,-4.186 v -17.193 l -3.996,6.749 v 10.444 c 0,2.111 -0.309,3.727 -0.924,4.845 -0.616,1.118 -1.703,2.079 -3.262,2.884 -0.527,0.252 -0.892,0.521 -1.093,0.811 -0.202,0.288 -0.301,0.659 -0.301,1.112 0,0.679 0.219,1.175 0.659,1.489 0.439,0.315 1.15,0.472 2.131,0.472 h 9.425 c 1.283,0 2.125,-0.202 2.527,-0.603 0.427,-0.403 0.64,-0.881 0.64,-1.433 0,-0.528 -0.119,-0.925 -0.358,-1.187 m -5.448,-48.243 h -10.293 l -25.601,44.114 c -0.553,0.954 -1.006,1.621 -1.358,1.998 -0.352,0.377 -0.804,0.653 -1.357,0.829 l -1.432,0.528 c -0.378,0.126 -0.679,0.352 -0.906,0.678 -0.226,0.327 -0.339,0.691 -0.339,1.095 0,0.427 0.113,0.822 0.339,1.187 0.227,0.365 0.528,0.622 0.906,0.773 0.426,0.176 1.583,0.264 3.468,0.264 h 16.514 l 20.059,-34.839 z m -26.77,0.49 c -0.403,-0.327 -1.232,-0.49 -2.488,-0.49 h -8.71 c -2.288,0 -3.431,0.653 -3.431,1.96 0,0.453 0.12,0.811 0.358,1.075 0.239,0.263 0.76,0.622 1.565,1.075 2.413,1.331 3.619,3.757 3.619,7.276 v 26.846 l 3.997,-6.636 v -20.21 c 0,-1.759 0.295,-3.205 0.887,-4.336 0.59,-1.131 1.526,-2.061 2.808,-2.79 l 1.132,-0.641 c 0.652,-0.376 0.98,-0.943 0.98,-1.697 0,-0.579 -0.24,-1.055 -0.717,-1.432 m -19.852,3.826 c -0.741,-1.118 -1.664,-2.117 -2.771,-2.996 -1.03,-0.83 -2.149,-1.427 -3.355,-1.791 -1.206,-0.365 -2.627,-0.547 -4.261,-0.547 -3.318,0 -5.907,0.948 -7.767,2.846 -1.86,1.898 -2.79,4.544 -2.79,7.936 v 6.335 c 0,1.408 -0.013,2.225 -0.037,2.451 -0.127,1.005 -0.479,1.872 -1.057,2.601 -0.729,0.88 -1.772,1.395 -3.129,1.546 v 4.035 c 1.357,0.201 2.324,0.553 2.903,1.056 0.503,0.452 0.849,0.967 1.038,1.546 0.188,0.578 0.282,1.432 0.282,2.563 v 9.992 c 0,1.583 -0.308,2.765 -0.924,3.544 -0.616,0.779 -1.728,1.395 -3.337,1.848 v 4.185 h 0.981 c 2.79,0 5.165,-0.101 7.126,-0.302 2.915,-0.277 5.517,-1.232 7.805,-2.866 3.292,-2.337 4.939,-5.668 4.939,-9.991 0,-3.544 -1.106,-6.447 -3.318,-8.71 -0.931,-0.955 -2.017,-1.734 -3.262,-2.338 -1.244,-0.603 -3.136,-1.281 -5.674,-2.035 2.312,-0.352 4.091,-0.742 5.335,-1.169 1.244,-0.428 2.369,-1.006 3.374,-1.734 1.056,-0.78 1.868,-1.71 2.432,-2.79 0.566,-1.082 0.849,-2.226 0.849,-3.432 v -7.804 c 0,-0.805 0.264,-1.208 0.792,-1.208 0.2,0 0.371,0.057 0.508,0.17 0.139,0.114 0.333,0.333 0.585,0.661 0.628,0.854 1.269,1.281 1.923,1.281 0.427,0 0.855,-0.226 1.282,-0.678 0.427,-0.453 0.641,-0.905 0.641,-1.357 0,-0.78 -0.372,-1.729 -1.113,-2.848 m -24.489,-3.863 c -0.477,-0.302 -1.269,-0.453 -2.375,-0.453 h -1.282 -16.815 -0.981 c -0.905,0 -1.602,0.169 -2.092,0.508 -0.491,0.339 -0.736,0.824 -0.736,1.452 0,1.031 0.503,1.709 1.509,2.037 0.829,0.276 1.313,0.445 1.451,0.508 0.138,0.063 0.283,0.207 0.434,0.434 0.301,0.401 0.452,1.043 0.452,1.923 v 37.741 c 0,0.88 -0.151,1.522 -0.452,1.923 -0.151,0.227 -0.296,0.371 -0.434,0.434 -0.138,0.062 -0.622,0.232 -1.451,0.509 -1.006,0.326 -1.509,1.005 -1.509,2.036 0,0.628 0.245,1.113 0.736,1.452 0.49,0.339 1.187,0.509 2.092,0.509 h 0.981 16.778 v -44.302 c 0,-0.981 0.189,-1.685 0.565,-2.112 0.201,-0.252 0.39,-0.409 0.566,-0.471 0.176,-0.063 0.754,-0.22 1.734,-0.471 1.206,-0.277 1.81,-0.969 1.81,-2.074 0,-0.654 -0.327,-1.183 -0.981,-1.583 m -30.312,-0.453 h -18.815 c -0.755,0 -1.358,0.181 -1.81,0.546 -0.452,0.364 -0.679,0.848 -0.679,1.452 0,0.503 0.1,0.88 0.302,1.131 0.2,0.251 0.653,0.566 1.357,0.943 0.503,0.251 0.854,0.527 1.056,0.829 0.201,0.302 0.301,0.679 0.301,1.132 0,0.427 -0.037,0.804 -0.112,1.131 l -1.207,5.466 h -10.52 l 1.018,4.488 h 8.446 l -6.937,30.653 0.942,3.695 h 15.195 l 10.482,-44.302 c 0.201,-0.78 0.427,-1.471 0.678,-2.075 0.227,-0.477 0.729,-0.867 1.508,-1.168 0.654,-0.277 1.107,-0.553 1.357,-0.83 0.251,-0.277 0.378,-0.653 0.378,-1.131 0,-1.307 -0.981,-1.96 -2.94,-1.96 m -32.275,0 h -9.578 c -0.93,0 -1.665,0.194 -2.206,0.585 -0.54,0.388 -0.81,0.922 -0.81,1.602 0,0.729 0.553,1.332 1.66,1.81 1.029,0.452 1.79,0.86 2.28,1.225 0.491,0.364 0.962,0.86 1.414,1.489 0.703,1.031 1.282,2.4 1.735,4.11 l 8.521,31.068 1.922,-7.804 -6.673,-24.358 c -0.202,-0.704 -0.302,-1.357 -0.302,-1.96 0,-1.584 0.741,-2.715 2.225,-3.394 l 1.32,-0.603 c 0.829,-0.377 1.244,-1.006 1.244,-1.886 0,-1.256 -0.918,-1.884 -2.752,-1.884 m -13.971,48.581 c -0.213,-0.263 -0.571,-0.509 -1.074,-0.735 -1.131,-0.503 -1.96,-1.031 -2.489,-1.583 -1.156,-1.157 -2.023,-2.828 -2.601,-5.015 l -4.675,-18.06 -1.961,7.653 2.753,11.161 c 0.226,0.879 0.339,1.558 0.339,2.037 0,0.754 -0.208,1.4 -0.622,1.941 -0.415,0.54 -1.1,1.049 -2.055,1.527 -0.628,0.327 -1.062,0.64 -1.301,0.942 -0.239,0.303 -0.358,0.691 -0.358,1.169 0,0.654 0.207,1.125 0.623,1.415 0.414,0.288 1.073,0.433 1.979,0.433 h 8.973 c 1.031,0 1.753,-0.145 2.169,-0.433 0.414,-0.29 0.621,-0.774 0.621,-1.452 0,-0.403 -0.107,-0.736 -0.321,-1 m -16.57,-48.581 h -8.22 l -8.785,33.142 4.487,18.324 h 7.767 l 9.049,-34.311 z m -20.663,0 h -8.143 l -12.141,44.301 c -0.277,1.006 -0.534,1.685 -0.773,2.036 -0.239,0.352 -0.648,0.642 -1.225,0.869 -1.006,0.401 -1.509,1.067 -1.509,1.998 0,0.728 0.315,1.288 0.943,1.677 0.628,0.39 1.509,0.585 2.639,0.585 h 17.646 c 1.105,0 1.86,-0.151 2.263,-0.453 0.528,-0.377 0.791,-0.892 0.791,-1.546 0,-0.779 -0.44,-1.432 -1.32,-1.96 -0.729,-0.427 -1.2,-0.786 -1.413,-1.075 -0.215,-0.289 -0.321,-0.722 -0.321,-1.301 0,-0.276 0.038,-0.553 0.113,-0.83 l 7.013,-26.052 z m 300.541,52.446 c 4.096,-0.377 7.465,-1.131 10.104,-2.262 0.779,-0.352 1.382,-0.528 1.81,-0.528 0.402,0 0.71,0.095 0.923,0.283 0.214,0.188 0.648,0.723 1.301,1.602 0.453,0.628 1.019,0.943 1.697,0.943 0.704,0 1.201,-0.195 1.49,-0.584 0.288,-0.391 0.433,-1.037 0.433,-1.942 V 316.85 c 0,-1.911 -0.704,-2.866 -2.111,-2.866 -0.704,0 -1.226,0.189 -1.565,0.566 -0.339,0.377 -0.66,1.118 -0.961,2.224 -0.377,1.408 -1.056,3.048 -2.037,4.921 -0.98,1.872 -1.922,3.349 -2.828,4.43 -1.03,1.256 -2.186,2.181 -3.468,2.771 -1.282,0.59 -2.878,0.936 -4.788,1.038 z m -376.755,24.306 v -69.707 c 0,-17.807 14.487,-32.293 32.293,-32.293 h 407.31 c 17.807,0 32.294,14.486 32.294,32.293 v 69.707 z"
           style="fill:#000000;fill-opacity:1;fill-rule:nonzero;stroke:none"
           id="path20252"
           inkscape:connector-curvature="0" /><path
           d="m 540.18,403.614 v 35.29 c 0,2.176 -0.314,3.906 -0.94,5.189 -0.387,0.834 -0.865,1.446 -1.431,1.834 -0.567,0.387 -1.461,0.715 -2.684,0.984 v 4.965 c 1.58,0 2.922,-0.061 4.025,-0.179 3.787,-0.418 7.455,-2.029 11.004,-4.831 3.518,-2.714 6.127,-6.247 7.827,-10.601 1.76,-4.413 2.639,-9.303 2.639,-14.671 0,-6.083 -1.117,-11.488 -3.354,-16.214 -2.237,-4.727 -5.443,-8.446 -9.617,-11.159 -2.028,-1.313 -3.914,-2.207 -5.658,-2.685 -1.744,-0.476 -4.033,-0.715 -6.866,-0.715 v 4.83 c 1.253,0.328 2.125,0.626 2.617,0.895 0.491,0.269 0.917,0.685 1.275,1.253 0.447,0.655 0.752,1.393 0.917,2.214 0.164,0.82 0.246,2.019 0.246,3.601 m -9.035,48.262 v -61.055 h -19.905 -1.163 c -1.073,0 -1.901,0.201 -2.482,0.604 -0.582,0.402 -0.872,0.976 -0.872,1.721 0,1.222 0.596,2.028 1.789,2.417 0.983,0.327 1.557,0.529 1.722,0.603 0.162,0.074 0.335,0.246 0.514,0.514 0.358,0.477 0.536,1.237 0.536,2.282 v 44.773 c 0,1.043 -0.178,1.804 -0.536,2.281 -0.179,0.268 -0.352,0.44 -0.514,0.515 -0.165,0.073 -0.739,0.275 -1.722,0.604 -1.193,0.386 -1.789,1.191 -1.789,2.414 0,0.745 0.29,1.32 0.872,1.723 0.581,0.402 1.409,0.604 2.482,0.604 h 1.163 z m -49.739,-61.055 v 4.83 c 1.938,0.298 3.54,0.717 4.809,1.253 1.265,0.536 2.541,1.357 3.824,2.46 1.281,1.103 2.303,2.243 3.064,3.422 0.76,1.178 1.483,2.735 2.168,4.674 0.329,0.954 0.671,1.603 1.029,1.945 0.358,0.343 0.85,0.515 1.476,0.515 0.835,0 1.416,-0.246 1.745,-0.738 0.328,-0.493 0.492,-1.349 0.492,-2.572 v -15.789 z m -0.046,61.055 h 18.027 v -15.834 c 0,-0.925 -0.179,-1.596 -0.537,-2.013 -0.358,-0.418 -0.924,-0.627 -1.7,-0.627 -0.656,0 -1.133,0.134 -1.431,0.404 -0.298,0.268 -0.581,0.819 -0.85,1.653 -1.133,3.46 -2.796,6.099 -4.987,7.918 -2.192,1.819 -5.031,2.907 -8.522,3.265 z m -0.222,-32.563 v 5.189 c 1.728,0.834 3.011,1.744 3.846,2.728 0.834,0.984 1.447,2.296 1.834,3.936 0.238,1.133 0.551,1.916 0.939,2.349 0.388,0.432 0.94,0.648 1.655,0.648 0.954,0 1.61,-0.373 1.969,-1.118 0.208,-0.388 0.313,-1.268 0.313,-2.639 v -17.042 c 0,-1.402 -0.157,-2.37 -0.47,-2.907 -0.313,-0.537 -0.887,-0.805 -1.723,-0.805 -0.686,0 -1.222,0.207 -1.609,0.626 -0.389,0.417 -0.702,1.118 -0.94,2.102 -0.507,2.057 -1.229,3.638 -2.17,4.741 -0.938,1.104 -2.154,1.834 -3.644,2.192 m -3.758,32.563 v -61.055 h -19.903 -1.164 c -1.073,0 -1.901,0.201 -2.483,0.604 -0.581,0.402 -0.872,0.976 -0.872,1.721 0,1.222 0.597,2.028 1.789,2.417 0.984,0.327 1.559,0.529 1.723,0.603 0.163,0.074 0.335,0.246 0.514,0.514 0.358,0.477 0.537,1.237 0.537,2.282 v 44.773 c 0,1.043 -0.179,1.804 -0.537,2.281 -0.179,0.268 -0.351,0.44 -0.514,0.515 -0.164,0.073 -0.739,0.275 -1.723,0.604 -1.192,0.386 -1.789,1.191 -1.789,2.414 0,0.745 0.291,1.32 0.872,1.723 0.582,0.402 1.41,0.604 2.483,0.604 h 1.164 z m -51.572,-3.937 v 4.92 c 1.789,-0.119 3.338,-0.351 4.652,-0.692 1.311,-0.344 3.175,-1.023 5.591,-2.036 0.595,-0.239 1.088,-0.358 1.475,-0.358 0.567,0 0.985,0.194 1.252,0.582 l 0.985,1.297 c 0.476,0.656 1.058,0.983 1.744,0.983 0.806,0 1.394,-0.29 1.767,-0.872 0.372,-0.581 0.559,-1.498 0.559,-2.75 v -14.76 c 0,-0.866 -0.246,-1.573 -0.738,-2.125 -0.491,-0.552 -1.126,-0.827 -1.901,-0.827 -0.596,0 -1.148,0.193 -1.655,0.581 -0.268,0.238 -0.485,0.53 -0.648,0.872 -0.164,0.342 -0.322,0.917 -0.47,1.722 -0.328,1.461 -0.895,2.967 -1.7,4.518 -0.805,1.55 -1.744,2.937 -2.818,4.16 -2.146,2.414 -4.845,4.009 -8.095,4.785 m -5.86,-53.226 v -5.1 c -2.445,0 -5.144,0.701 -8.096,2.103 -1.104,0.507 -1.864,0.834 -2.281,0.983 -0.419,0.15 -0.821,0.224 -1.208,0.224 -0.596,0 -1.044,-0.097 -1.342,-0.29 -0.298,-0.195 -0.775,-0.679 -1.43,-1.454 -0.538,-0.656 -1.119,-0.985 -1.745,-0.985 -1.67,0 -2.505,1.282 -2.505,3.847 v 16.281 c 0,0.836 0.238,1.544 0.717,2.125 0.475,0.582 1.072,0.886 1.788,0.917 0.656,0.029 1.17,-0.156 1.543,-0.558 0.373,-0.404 0.693,-1.112 0.963,-2.125 0.684,-2.566 1.675,-4.966 2.972,-7.202 1.299,-2.236 2.812,-4.13 4.541,-5.68 1.759,-1.611 3.786,-2.639 6.083,-3.086 m 2.326,58.37 v -5.144 c -1.849,-0.507 -3.258,-1.29 -4.227,-2.348 -0.97,-1.058 -1.454,-2.363 -1.454,-3.914 0,-1.491 0.403,-2.796 1.208,-3.913 0.805,-1.119 2.117,-2.184 3.936,-3.198 1.252,-0.687 4.085,-1.999 8.498,-3.937 2.684,-1.163 4.764,-2.213 6.241,-3.153 1.475,-0.939 2.87,-2.11 4.181,-3.511 3.519,-3.697 5.279,-8.096 5.279,-13.195 0,-3.847 -0.956,-7.366 -2.864,-10.556 -1.908,-3.192 -4.532,-5.695 -7.871,-7.515 -1.789,-0.954 -3.751,-1.707 -5.883,-2.258 -2.131,-0.551 -4.122,-0.828 -5.97,-0.828 v 5.1 c 2.593,0.625 4.465,1.498 5.613,2.616 1.147,1.117 1.722,2.631 1.722,4.54 0,1.998 -0.895,3.757 -2.684,5.278 -1.192,0.984 -3.459,2.206 -6.799,3.667 -3.667,1.611 -6.18,2.758 -7.536,3.445 -1.357,0.685 -2.662,1.491 -3.914,2.415 -5.606,3.996 -8.409,9.318 -8.409,15.969 0,3.399 0.7,6.536 2.102,9.415 1.402,2.877 3.355,5.195 5.86,6.955 3.489,2.445 7.812,3.801 12.971,4.07 m -51.526,-4.831 v 4.831 c 3.22,-0.15 6.164,-0.805 8.833,-1.968 2.669,-1.162 5.151,-2.863 7.448,-5.099 6.082,-5.934 9.124,-14.179 9.124,-24.735 0,-10.347 -2.907,-18.413 -8.722,-24.198 -4.473,-4.473 -10.034,-6.962 -16.683,-7.47 v 4.92 c 0.774,0.18 1.378,0.41 1.811,0.694 0.431,0.283 0.827,0.693 1.185,1.23 0.805,1.222 1.208,3.07 1.208,5.545 v 39.988 c 0,1.58 -0.269,2.833 -0.805,3.758 -0.358,0.626 -0.783,1.118 -1.275,1.476 -0.492,0.358 -1.201,0.7 -2.124,1.028 m -3.669,0 c -1.52,-0.536 -2.594,-1.267 -3.22,-2.191 -0.627,-0.924 -0.94,-2.282 -0.94,-4.071 v -39.988 c 0,-2.623 0.358,-4.472 1.074,-5.545 0.566,-0.894 1.595,-1.537 3.086,-1.924 v -4.92 c -6.62,0.537 -12.166,3.027 -16.639,7.47 -5.815,5.785 -8.721,13.851 -8.721,24.198 0,5.188 0.766,9.878 2.302,14.067 1.536,4.19 3.81,7.746 6.822,10.668 2.296,2.236 4.771,3.937 7.425,5.099 2.653,1.163 5.591,1.818 8.811,1.968 z m -44.282,-57.431 v 5.009 c 1.461,0.269 2.617,0.566 3.467,0.895 0.85,0.328 1.662,0.805 2.438,1.431 1.252,0.985 2.4,2.341 3.444,4.071 1.043,1.729 1.893,3.652 2.549,5.77 0.477,1.64 0.917,2.72 1.32,3.242 0.402,0.521 0.991,0.783 1.767,0.783 0.834,0 1.445,-0.342 1.833,-1.028 0.179,-0.329 0.268,-0.985 0.268,-1.969 v -18.204 z m -3.623,0 h -19.903 -1.164 c -1.073,0 -1.901,0.201 -2.482,0.604 -0.582,0.402 -0.873,0.976 -0.873,1.721 0,1.222 0.597,2.028 1.79,2.417 0.983,0.327 1.558,0.529 1.722,0.603 0.163,0.074 0.335,0.246 0.514,0.514 0.358,0.477 0.536,1.237 0.536,2.282 v 44.773 c 0,1.043 -0.178,1.804 -0.536,2.281 -0.179,0.268 -0.351,0.44 -0.514,0.515 -0.164,0.073 -0.739,0.275 -1.722,0.604 -1.193,0.386 -1.79,1.191 -1.79,2.414 0,0.745 0.291,1.32 0.873,1.723 0.581,0.402 1.409,0.604 2.482,0.604 h 1.164 19.948 1.521 c 1.311,0 2.251,-0.179 2.818,-0.537 0.775,-0.477 1.163,-1.104 1.163,-1.879 0,-1.312 -0.716,-2.132 -2.148,-2.46 -1.162,-0.269 -1.848,-0.447 -2.057,-0.537 -0.209,-0.089 -0.432,-0.268 -0.67,-0.536 -0.448,-0.537 -0.672,-1.373 -0.672,-2.505 z m -49.693,-1.208 v 5.457 c 2.327,0.179 4.771,1.058 7.336,2.639 1.371,0.864 2.594,2.02 3.667,3.466 1.074,1.447 1.879,3.034 2.416,4.764 0.298,0.955 0.648,1.633 1.051,2.035 0.403,0.402 0.932,0.604 1.588,0.604 0.715,0 1.311,-0.268 1.789,-0.806 0.476,-0.536 0.716,-1.206 0.716,-2.012 0,-1.342 -0.515,-2.967 -1.544,-4.875 -1.029,-1.909 -2.348,-3.667 -3.958,-5.278 -1.969,-1.968 -3.989,-3.43 -6.061,-4.383 -2.073,-0.954 -4.405,-1.492 -7,-1.611 m -0.134,58.013 v 5.413 c 1.461,-0.24 2.646,-0.493 3.556,-0.761 0.909,-0.268 2.556,-0.835 4.943,-1.7 1.521,-0.536 2.534,-0.805 3.041,-0.805 0.864,0 1.521,0.387 1.968,1.164 l 0.582,1.073 c 0.358,0.716 1.028,1.073 2.012,1.073 0.805,0 1.424,-0.239 1.857,-0.716 0.432,-0.477 0.649,-1.178 0.649,-2.102 v -18.607 c 0,-1.193 -0.269,-2.057 -0.806,-2.594 -0.536,-0.537 -1.149,-0.805 -1.834,-0.805 -0.716,0 -1.29,0.23 -1.722,0.693 -0.433,0.462 -0.783,1.215 -1.051,2.259 -0.626,2.355 -1.238,4.205 -1.834,5.546 -1.282,2.833 -2.744,5.129 -4.383,6.889 -1.104,1.192 -2.207,2.109 -3.311,2.75 -1.103,0.642 -2.326,1.052 -3.667,1.23 m -3.534,5.457 v -5.412 c -1.759,-0.268 -3.071,-1.044 -3.936,-2.326 -0.865,-1.282 -1.297,-3.116 -1.297,-5.501 v -36.947 -1.923 c 0,-0.686 0.141,-1.409 0.425,-2.169 0.283,-0.761 0.648,-1.409 1.096,-1.946 0.477,-0.596 0.983,-1.021 1.521,-1.274 0.536,-0.254 1.267,-0.425 2.191,-0.515 v -5.457 c -5.785,0 -10.809,1.506 -15.073,4.518 -3.758,2.653 -6.591,6.223 -8.499,10.712 -1.908,4.488 -2.862,9.803 -2.862,15.947 0,4.502 0.619,8.699 1.856,12.591 1.237,3.89 3.034,7.267 5.39,10.13 2.385,2.892 5.24,5.218 8.565,6.978 3.325,1.76 6.523,2.639 9.595,2.639 z m 231.047,60.456 v 35.29 c 0,2.176 -0.313,3.906 -0.939,5.189 -0.388,0.834 -0.865,1.446 -1.432,1.834 -0.566,0.387 -1.461,0.715 -2.683,0.984 v 4.965 c 1.58,0 2.922,-0.06 4.025,-0.179 3.786,-0.417 7.455,-2.029 11.004,-4.831 3.518,-2.714 6.127,-6.247 7.827,-10.601 1.76,-4.413 2.639,-9.303 2.639,-14.67 0,-6.084 -1.117,-11.488 -3.355,-16.214 -2.236,-4.727 -5.442,-8.447 -9.616,-11.16 -2.028,-1.313 -3.914,-2.208 -5.658,-2.684 -1.744,-0.477 -4.033,-0.716 -6.866,-0.716 v 4.831 c 1.253,0.328 2.125,0.626 2.617,0.894 0.491,0.269 0.917,0.686 1.274,1.253 0.448,0.655 0.752,1.393 0.917,2.214 0.164,0.82 0.246,2.02 0.246,3.601 m -9.036,48.262 v -61.055 h -19.903 -1.163 c -1.073,0 -1.902,0.202 -2.483,0.604 -0.582,0.402 -0.872,0.977 -0.872,1.722 0,1.222 0.597,2.028 1.789,2.415 0.984,0.328 1.558,0.53 1.723,0.604 0.162,0.074 0.335,0.246 0.514,0.514 0.358,0.477 0.536,1.238 0.536,2.282 v 44.774 c 0,1.043 -0.178,1.803 -0.536,2.28 -0.179,0.268 -0.352,0.44 -0.514,0.515 -0.165,0.074 -0.739,0.275 -1.723,0.604 -1.192,0.387 -1.789,1.191 -1.789,2.415 0,0.745 0.29,1.319 0.872,1.722 0.581,0.403 1.41,0.604 2.483,0.604 h 1.163 z m -63.201,0 h 18.025 l 12.435,-52.556 c 0.238,-0.925 0.507,-1.745 0.806,-2.461 0.268,-0.567 0.864,-1.028 1.789,-1.386 0.775,-0.328 1.311,-0.657 1.61,-0.984 0.298,-0.329 0.447,-0.776 0.447,-1.342 0,-1.551 -1.163,-2.326 -3.489,-2.326 h -22.319 c -0.895,0 -1.611,0.216 -2.147,0.649 -0.537,0.432 -0.805,1.006 -0.805,1.722 0,0.595 0.119,1.043 0.358,1.341 0.238,0.299 0.774,0.671 1.61,1.119 0.596,0.298 1.013,0.626 1.251,0.984 0.24,0.357 0.359,0.805 0.359,1.342 0,0.507 -0.045,0.954 -0.134,1.342 l -1.431,6.485 h -12.479 l 1.207,5.323 h 10.019 l -8.229,36.364 z m -3.086,-11.362 2.281,-9.258 -7.917,-28.895 c -0.239,-0.835 -0.358,-1.61 -0.358,-2.326 0,-1.879 0.879,-3.22 2.64,-4.025 l 1.565,-0.716 c 0.983,-0.447 1.476,-1.193 1.476,-2.236 0,-1.492 -1.089,-2.237 -3.265,-2.237 h -11.361 c -1.104,0 -1.976,0.231 -2.617,0.693 -0.641,0.463 -0.961,1.096 -0.961,1.901 0,0.865 0.655,1.58 1.967,2.147 1.223,0.537 2.124,1.022 2.706,1.454 0.582,0.432 1.141,1.021 1.678,1.767 0.834,1.222 1.521,2.847 2.057,4.875 z m -45.757,7.739 v 4.83 c 3.22,-0.15 6.163,-0.804 8.833,-1.967 2.669,-1.163 5.151,-2.863 7.448,-5.1 6.082,-5.934 9.125,-14.179 9.125,-24.735 0,-10.347 -2.908,-18.413 -8.723,-24.198 -4.473,-4.473 -10.034,-6.962 -16.683,-7.47 v 4.92 c 0.774,0.18 1.378,0.41 1.81,0.694 0.432,0.283 0.828,0.694 1.185,1.23 0.806,1.222 1.208,3.071 1.208,5.546 v 39.988 c 0,1.58 -0.268,2.833 -0.804,3.757 -0.358,0.626 -0.783,1.118 -1.276,1.476 -0.491,0.358 -1.2,0.7 -2.123,1.029 m -3.669,0 c -1.52,-0.536 -2.594,-1.267 -3.22,-2.192 -0.626,-0.924 -0.94,-2.281 -0.94,-4.07 v -39.988 c 0,-2.624 0.359,-4.472 1.074,-5.546 0.566,-0.895 1.595,-1.536 3.086,-1.924 v -4.92 c -6.619,0.538 -12.166,3.027 -16.638,7.47 -5.815,5.785 -8.723,13.851 -8.723,24.198 0,5.189 0.767,9.878 2.304,14.067 1.535,4.19 3.808,7.746 6.821,10.668 2.296,2.237 4.771,3.937 7.425,5.1 2.653,1.163 5.591,1.817 8.811,1.967 z M 322.687,530.67 c 2.742,-0.418 4.853,-0.88 6.329,-1.387 1.476,-0.507 2.81,-1.193 4.003,-2.057 1.252,-0.925 2.214,-2.028 2.885,-3.31 0.671,-1.282 1.006,-2.64 1.006,-4.071 v -9.258 c 0,-0.955 0.313,-1.432 0.94,-1.432 0.238,0 0.44,0.068 0.604,0.201 0.163,0.135 0.395,0.396 0.692,0.784 0.746,1.013 1.506,1.52 2.282,1.52 0.507,0 1.013,-0.268 1.521,-0.805 0.507,-0.537 0.76,-1.074 0.76,-1.61 0,-0.925 -0.441,-2.051 -1.32,-3.378 -0.879,-1.326 -1.975,-2.512 -3.286,-3.556 -1.224,-0.983 -2.55,-1.692 -3.981,-2.123 -1.433,-0.433 -3.117,-0.65 -5.055,-0.65 -3.937,0 -7.008,1.126 -9.214,3.377 -2.207,2.252 -3.311,5.391 -3.311,9.416 v 7.514 c 0,1.67 -0.015,2.639 -0.043,2.907 -0.151,1.193 -0.567,2.222 -1.253,3.087 -0.865,1.043 -2.103,1.655 -3.713,1.834 v 4.786 c 1.61,0.238 2.758,0.655 3.445,1.252 0.595,0.538 1.005,1.147 1.23,1.834 0.223,0.686 0.334,1.699 0.334,3.041 v 11.853 c 0,1.88 -0.365,3.281 -1.095,4.206 -0.732,0.923 -2.051,1.654 -3.959,2.191 v 4.965 h 1.164 c 3.309,0 6.127,-0.119 8.452,-0.358 3.46,-0.329 6.546,-1.462 9.26,-3.4 3.906,-2.772 5.859,-6.724 5.859,-11.853 0,-4.205 -1.312,-7.648 -3.936,-10.332 -1.103,-1.134 -2.393,-2.057 -3.869,-2.773 -1.476,-0.716 -3.72,-1.521 -6.731,-2.415 m -13.732,31.131 v -52.556 c 0,-1.164 0.224,-1.998 0.671,-2.505 0.238,-0.299 0.462,-0.485 0.67,-0.559 0.209,-0.076 0.895,-0.262 2.058,-0.559 1.432,-0.329 2.147,-1.149 2.147,-2.46 0,-0.776 -0.388,-1.402 -1.163,-1.879 -0.567,-0.358 -1.506,-0.537 -2.817,-0.537 H 309 289.051 287.888 c -1.074,0 -1.902,0.202 -2.483,0.604 -0.582,0.402 -0.872,0.977 -0.872,1.722 0,1.222 0.596,2.028 1.789,2.415 0.984,0.328 1.558,0.53 1.723,0.604 0.163,0.074 0.334,0.246 0.514,0.514 0.358,0.477 0.536,1.238 0.536,2.282 v 44.774 c 0,1.043 -0.178,1.803 -0.536,2.28 -0.18,0.268 -0.351,0.44 -0.514,0.515 -0.165,0.074 -0.739,0.275 -1.723,0.604 -1.193,0.387 -1.789,1.191 -1.789,2.415 0,0.745 0.29,1.319 0.872,1.722 0.581,0.403 1.409,0.604 2.483,0.604 h 1.163 z"
           style="fill:#000000;fill-opacity:1;fill-rule:nonzero;stroke:none"
           id="path20254"
           inkscape:connector-curvature="0" /></g></g></g></svg>